<svg width="436" height="403" viewBox="0 0 436 403" fill="none" xmlns="http://www.w3.org/2000/svg">
<rect x="187.182" y="52.9331" width="30" height="348" rx="3" transform="rotate(4 187.182 52.9331)" fill="#00427b"/>
<rect x="287.81" y="37.0125" width="30" height="348" rx="3" transform="rotate(4 287.81 37.0125)" fill="#00427b"/>
<path fill-rule="evenodd" clip-rule="evenodd" d="M2.57621 122.359C1.15341 121.51 0.693065 119.657 1.55993 118.245C79.7602 -9.13104 264.362 -41.7025 385.077 60.563C422.861 92.5722 436.42 136.06 435.711 178.302C435.006 220.225 420.329 261.803 400.495 292.625C361.118 353.819 291.742 400.486 204.181 393.46C161.64 390.046 104.625 376.995 72.9764 330.441C58.0923 308.547 50.7537 283.481 52.6907 255.269C54.6067 227.362 65.5263 197.24 85.6092 164.633C107.172 129.624 152.761 97.5337 199.91 77.639C223.783 67.5655 248.844 60.2709 272.568 57.3085C295.376 54.4606 317.974 55.492 337.207 62.8876C231.857 -1.32176 90.1178 31.7654 27.3232 133.621C26.4537 135.031 24.6087 135.506 23.1859 134.657L2.57621 122.359ZM369.911 87.2108C373.463 92.0567 376.332 97.3981 378.398 103.168C384.907 121.345 382.814 142.005 371.797 161.896C350.145 200.99 294.268 237.63 194.921 258.189L188.841 228.811C285.21 208.869 330.284 174.93 345.553 147.361C352.997 133.92 353.358 122.227 350.154 113.281C346.91 104.221 339.374 96.1895 327.678 91.3812C314.539 85.9797 296.923 84.5004 276.285 87.0773C255.818 89.633 233.444 96.0501 211.573 105.279C167.231 123.99 128.09 152.868 111.153 180.366C92.7361 210.268 84.1047 235.702 82.6203 257.324C81.1568 278.639 86.5682 297.073 97.7862 313.575C121.311 348.178 165.882 360.29 206.581 363.556C281.021 369.529 340.645 330.196 375.267 276.391C392.434 249.713 405.115 213.513 405.715 177.798C406.28 144.147 396.195 111.749 369.911 87.2108Z" fill="#00427b"/>
</svg>
